<svg width="36" height="36" viewBox="0 0 36 36" fill="none" xmlns="http://www.w3.org/2000/svg">
<path d="M15.795 25.5C16.3826 26.0186 17.1544 26.3333 17.9998 26.3333C18.8452 26.3333 19.6171 26.0186 20.2047 25.5M22.9998 14.6666C22.9998 13.3405 22.473 12.0688 21.5353 11.1311C20.5977 10.1934 19.3259 9.66663 17.9998 9.66663C16.6737 9.66663 15.402 10.1934 14.4643 11.1311C13.5266 12.0688 12.9998 13.3405 12.9998 14.6666C12.9998 17.2418 12.3502 19.0049 11.6245 20.1711C11.0124 21.1549 10.7064 21.6467 10.7176 21.7839C10.73 21.9359 10.7622 21.9938 10.8846 22.0846C10.9952 22.1666 11.4936 22.1666 12.4905 22.1666H23.5091C24.506 22.1666 25.0044 22.1666 25.115 22.0846C25.2374 21.9938 25.2696 21.9359 25.282 21.7839C25.2933 21.6467 24.9872 21.1549 24.3751 20.1711C23.6494 19.0049 22.9998 17.2418 22.9998 14.6666Z" stroke="#9395B8" stroke-width="1.5" stroke-linecap="round" stroke-linejoin="round"/>
<circle cx="28.5" cy="11.5" r="2.5" fill="#D21010"/>
</svg>
