<svg width="20" height="20" viewBox="0 0 20 20" fill="none" xmlns="http://www.w3.org/2000/svg">
<path fill-rule="evenodd" clip-rule="evenodd" d="M6.66602 0.833496C7.12625 0.833496 7.49935 1.20659 7.49935 1.66683V2.50016H12.4993V1.66683C12.4993 1.20659 12.8724 0.833496 13.3327 0.833496C13.7929 0.833496 14.166 1.20659 14.166 1.66683V2.50152C14.5622 2.50424 14.9085 2.51242 15.2092 2.53699C15.6776 2.57526 16.1082 2.6574 16.5127 2.86347C17.1399 3.18305 17.6498 3.69299 17.9694 4.32019C18.1754 4.72464 18.2576 5.15523 18.2959 5.62364C18.3327 6.07464 18.3327 6.62829 18.3327 7.29911V14.3679C18.3327 15.0387 18.3327 15.5923 18.2959 16.0434C18.2576 16.5118 18.1754 16.9424 17.9694 17.3468C17.6498 17.974 17.1399 18.4839 16.5127 18.8035C16.1082 19.0096 15.6776 19.0917 15.2092 19.13C14.7582 19.1668 14.2046 19.1668 13.5338 19.1668H6.46491C5.79411 19.1668 5.24049 19.1668 4.78949 19.13C4.32108 19.0917 3.89049 19.0096 3.48605 18.8035C2.85884 18.4839 2.34891 17.974 2.02933 17.3468C1.82325 16.9424 1.74112 16.5118 1.70284 16.0434C1.666 15.5924 1.66601 15.0387 1.66602 14.3679V7.29908C1.66601 6.62827 1.666 6.07464 1.70284 5.62364C1.74112 5.15523 1.82325 4.72464 2.02933 4.32019C2.34891 3.69299 2.85884 3.18305 3.48605 2.86347C3.89049 2.6574 4.32108 2.57526 4.78949 2.53699C5.09017 2.51242 5.43646 2.50424 5.83268 2.50152V1.66683C5.83268 1.20659 6.20578 0.833496 6.66602 0.833496ZM5.83268 4.1683C5.46141 4.17091 5.16987 4.17813 4.92521 4.19812C4.55987 4.22797 4.37303 4.28208 4.2427 4.34848C3.9291 4.50827 3.67413 4.76324 3.51434 5.07685C3.44793 5.20718 3.39383 5.39401 3.36398 5.75936C3.33333 6.13444 3.33268 6.61968 3.33268 7.3335V7.50016H16.666V7.3335C16.666 6.61968 16.6654 6.13444 16.6347 5.75936C16.6049 5.39401 16.5508 5.20718 16.4844 5.07685C16.3246 4.76324 16.0696 4.50827 15.756 4.34848C15.6257 4.28208 15.4388 4.22797 15.0735 4.19812C14.8288 4.17813 14.5373 4.17091 14.166 4.1683V5.00016C14.166 5.4604 13.7929 5.8335 13.3327 5.8335C12.8724 5.8335 12.4993 5.4604 12.4993 5.00016V4.16683H7.49935V5.00016C7.49935 5.4604 7.12625 5.8335 6.66602 5.8335C6.20578 5.8335 5.83268 5.4604 5.83268 5.00016V4.1683Z" fill="#9395B8"/>
</svg>
