<svg width="32" height="32" viewBox="0 0 32 32" fill="none" xmlns="http://www.w3.org/2000/svg">
<rect width="32" height="32" rx="16" fill="#F1F3F7"/>
<path fill-rule="evenodd" clip-rule="evenodd" d="M14.3736 8.7334C14.3785 8.7334 14.3835 8.7334 14.3885 8.7334L17.6285 8.7334C17.7028 8.73339 17.7647 8.73337 17.8236 8.73694C18.5691 8.78209 19.2219 9.25262 19.5005 9.9456C19.5225 10.0003 19.5421 10.0591 19.5656 10.1296L19.5703 10.1437C19.6009 10.2356 19.6083 10.2571 19.615 10.2736C19.7207 10.5365 19.9683 10.7149 20.2511 10.7321C20.2687 10.7331 20.2938 10.7334 20.3973 10.7334C20.4092 10.7334 20.4209 10.7334 20.4324 10.7334C20.6446 10.7334 20.7955 10.7333 20.9241 10.7461C22.1573 10.8683 23.1329 11.8438 23.255 13.0771C23.2678 13.2055 23.2678 13.3503 23.2677 13.5523L23.2677 18.8252C23.2677 19.3639 23.2677 19.8045 23.2385 20.1625C23.2082 20.5331 23.1436 20.8679 22.9843 21.1804C22.7351 21.6697 22.3373 22.0674 21.8481 22.3167C21.5355 22.476 21.2008 22.5405 20.8302 22.5708C20.4721 22.6001 20.0315 22.6001 19.4928 22.6001H12.5093C11.9706 22.6001 11.53 22.6001 11.1719 22.5708C10.8013 22.5405 10.4666 22.476 10.154 22.3167C9.66479 22.0674 9.26704 21.6697 9.01777 21.1804C8.85849 20.8679 8.7939 20.5331 8.76362 20.1625C8.73437 19.8045 8.73438 19.3639 8.73438 18.8252L8.73438 13.5849C8.73438 13.5739 8.73438 13.563 8.73438 13.5523C8.73434 13.3503 8.73432 13.2056 8.74705 13.0771C8.86924 11.8438 9.84481 10.8683 11.078 10.7461C11.2066 10.7333 11.3575 10.7334 11.5697 10.7334C11.5812 10.7334 11.5929 10.7334 11.6048 10.7334C11.7083 10.7334 11.7334 10.7331 11.751 10.7321C12.0338 10.7149 12.2814 10.5365 12.3871 10.2736C12.3937 10.2571 12.4012 10.2356 12.4318 10.1437C12.4334 10.1389 12.435 10.1342 12.4365 10.1295C12.46 10.0591 12.4796 10.0003 12.5016 9.9456C12.7802 9.25262 13.433 8.78209 14.1785 8.73694C14.2374 8.73337 14.2993 8.73339 14.3736 8.7334ZM16.001 14.2667C14.8597 14.2667 13.9344 15.192 13.9344 16.3334C13.9344 17.4748 14.8597 18.4001 16.001 18.4001C17.1424 18.4001 18.0677 17.4748 18.0677 16.3334C18.0677 15.192 17.1424 14.2667 16.001 14.2667ZM12.7344 16.3334C12.7344 14.5293 14.1969 13.0667 16.001 13.0667C17.8052 13.0667 19.2677 14.5293 19.2677 16.3334C19.2677 18.1375 17.8052 19.6001 16.001 19.6001C14.1969 19.6001 12.7344 18.1375 12.7344 16.3334Z" fill="#9395B8"/>
</svg>
