<svg width="36" height="36" viewBox="0 0 36 36" fill="none" xmlns="http://www.w3.org/2000/svg">
<path fill-rule="evenodd" clip-rule="evenodd" d="M9.75017 11.25C9.75017 6.69365 13.4438 3 18.0002 3C22.5565 3 26.2502 6.69365 26.2502 11.25C26.2502 15.8063 22.5565 19.5 18.0002 19.5C13.4438 19.5 9.75017 15.8063 9.75017 11.25ZM13.9896 21.7499C14.0752 21.75 14.162 21.75 14.2502 21.75H21.7502C21.8383 21.75 21.9252 21.75 22.0108 21.7499C23.8517 21.7492 25.1087 21.7488 26.1773 22.0729C28.5743 22.8001 30.4501 24.6758 31.1772 27.0729C31.6965 28.7846 31.0325 30.338 29.991 31.3666C28.9702 32.3748 27.4929 33 25.9875 33H10.0128C8.50743 33 7.03009 32.3748 6.0093 31.3666C4.96786 30.338 4.30386 28.7846 4.82312 27.0729C5.55024 24.6758 7.42602 22.8001 9.82303 22.0729C10.8916 21.7488 12.1487 21.7492 13.9896 21.7499Z" fill="white"/>
</svg>
